<svg width="36" height="36" viewBox="0 0 37 29" fill="none" xmlns="http://www.w3.org/2000/svg">
<path d="M33.748 0H3.25195C1.46107 0 0 1.45948 0 3.25195V24.9316C0 26.718 1.45456 28.1836 3.25195 28.1836H33.748C35.5345 28.1836 37 26.729 37 24.9316V3.25195C37 1.46555 35.5454 0 33.748 0ZM33.299 2.16797L18.5689 16.8981L3.71149 2.16797H33.299ZM2.16797 24.4827V3.69053L12.6088 14.0419L2.16797 24.4827ZM3.70094 26.0156L14.1484 15.5682L17.8091 19.1975C18.2329 19.6177 18.9168 19.6163 19.3388 19.1942L22.9082 15.6248L33.2991 26.0156H3.70094ZM34.832 24.4827L24.4412 14.0918L34.832 3.70087V24.4827Z" fill="#570080"/>
</svg>
