<svg width="36" height="36" viewBox="0 0 36 36" fill="none" xmlns="http://www.w3.org/2000/svg">
<rect width="36" height="36" fill="#182733"/>
<path d="M32.8359 4.28906H3.16406C1.42158 4.28906 0 5.70909 0 7.45312V28.5469C0 30.285 1.41525 31.7109 3.16406 31.7109H32.8359C34.5741 31.7109 36 30.2957 36 28.5469V7.45312C36 5.715 34.5847 4.28906 32.8359 4.28906ZM32.399 6.39844L18.0671 20.7304L3.61118 6.39844H32.399ZM2.10938 28.1101V7.87985L12.2681 17.9514L2.10938 28.1101ZM3.60091 29.6016L13.766 19.4365L17.3278 22.9677C17.7401 23.3765 18.4055 23.3752 18.8161 22.9645L22.2891 19.4915L32.3991 29.6016H3.60091ZM33.8906 28.11L23.7806 18L33.8906 7.88991V28.11Z" fill="#49D742"/>
</svg>
