<svg width="36" height="36" viewBox="0 0 36 36" fill="none" xmlns="http://www.w3.org/2000/svg">
<rect width="36" height="36" fill="#182733"/>
<path d="M18 0C8.10709 0 0 8.1774 0 18.0703C0 27.9058 8.0332 36 18 36C27.9544 36 36 27.9179 36 18.0703C36 8.1774 27.8929 0 18 0ZM21.1641 33.5742C20.1517 33.7852 19.0758 33.8906 18 33.8906C16.9242 33.8906 15.8483 33.7852 14.8359 33.5742V28.6383C14.8359 27.457 15.1523 27.0352 15.5742 26.4655C15.789 26.22 15.9186 25.9997 16.8819 24.5462L15.2578 24.293C11.0811 23.6813 9.43588 21.5085 8.78192 19.821C7.93817 17.5641 8.3812 14.7373 9.90005 12.9446C10.1321 12.6703 10.3219 12.2061 10.1533 11.721C9.83661 10.7507 9.87891 9.21094 10.0898 8.62015C11.2083 8.78 12.3582 9.58118 13.3174 10.1602C13.7593 10.4181 13.9911 10.3499 14.2031 10.3711C14.9738 10.2107 16.176 9.8226 18.0211 9.8226C19.1602 9.8226 20.3626 9.99124 21.5439 10.3288C21.7551 10.3239 22.0946 10.5035 22.6829 10.1602C23.6854 9.54932 24.7964 8.7756 25.9102 8.62015C26.1211 9.21094 26.1634 10.7507 25.847 11.721C25.6781 12.2061 25.8679 12.6703 26.1002 12.9446C27.6188 14.7376 28.0618 17.5641 27.2181 19.821C26.5641 21.5085 24.9189 23.6813 20.7422 24.293L19.1181 24.5462C20.1138 26.0486 20.2187 26.2288 20.4261 26.4655C20.8477 27.0352 21.1641 27.457 21.1641 28.6383V33.5742ZM23.2734 32.9626V28.6383C23.2734 27.4359 23.0202 26.6344 22.6826 26.0436C25.889 25.179 28.1673 23.2803 29.1797 20.5593C30.2555 17.6907 29.7705 14.2734 27.9772 11.9108C28.2939 10.4977 28.2939 8.24057 27.5345 7.18588C27.1969 6.72198 26.7328 6.46875 26.1422 6.46875C26.1211 6.46875 26.1211 6.46875 26.1211 6.46875C24.4855 6.55719 23.1982 7.38089 21.818 8.21942C20.5524 7.88187 19.2656 7.71323 17.9789 7.71323C16.6712 7.71323 15.3633 7.90302 14.2034 8.21942C12.7505 7.34326 11.4755 6.55499 9.79459 6.46875C9.26724 6.46875 8.80307 6.72198 8.46552 7.18588C7.70636 8.24057 7.70636 10.4977 8.02277 11.9108C6.22952 14.2734 5.74448 17.7116 6.82031 20.5593C7.8327 23.2803 10.111 25.179 13.3174 26.0436C13.0556 26.5015 12.8485 27.0923 12.7669 27.8918C12.1193 28.1151 11.5576 28.1879 11.0352 28.0344C10.4843 27.8715 10.055 27.5037 9.68198 26.8764C8.84427 25.4691 7.41742 24.3202 5.79282 24.4696L5.97821 26.5707C6.7305 26.5018 7.47922 27.2977 7.86813 27.9539C8.50974 29.0344 9.37408 29.743 10.4378 30.0572C11.2275 30.2899 11.9493 30.2844 12.7266 30.1185V32.9626C6.58823 30.8109 2.10938 24.9469 2.10938 18.0703C2.10938 9.33755 9.26724 2.10938 18 2.10938C26.7328 2.10938 33.8906 9.33755 33.8906 18.0703C33.8906 24.9469 29.4118 30.8109 23.2734 32.9626Z" fill="#49D742"/>
</svg>
