<svg width="36" height="36" viewBox="0 0 36 36" fill="none" xmlns="http://www.w3.org/2000/svg">
<rect width="36" height="36" fill="#182733"/>
<path d="M21.7691 24.1416C20.9627 24.948 19.2349 25.2359 18.0036 25.2359C16.7687 25.2359 15.0444 24.948 14.238 24.1416C14.0471 23.9508 13.7412 23.9508 13.5505 24.1416C13.3597 24.3325 13.3597 24.6385 13.5505 24.8291C14.8285 26.1071 17.2837 26.2079 18.0036 26.2079C18.7235 26.2079 21.1751 26.1071 22.4569 24.8291C22.6439 24.6382 22.6439 24.3323 22.4569 24.1416C22.266 23.9508 21.96 23.9508 21.7691 24.1416V24.1416Z" fill="#49D742"/>
<path d="M15.75 19.8756C15.75 18.8424 14.9076 18 13.8744 18C12.8414 18 11.9987 18.8424 11.9987 19.8756C11.9987 20.9086 12.8414 21.7513 13.8744 21.7513C14.9076 21.7513 15.75 20.9089 15.75 19.8756V19.8756Z" fill="#49D742"/>
<path d="M18 0C8.06039 0 0 8.06039 0 18C0 27.9396 8.06039 36 18 36C27.9396 36 36 27.9396 36 18C36 8.06039 27.9396 0 18 0ZM28.4436 20.4011C28.4832 20.6603 28.5049 20.9232 28.5049 21.1896C28.5049 25.2287 23.8033 28.5013 18.0036 28.5013C12.2039 28.5013 7.50229 25.2287 7.50229 21.1896C7.50229 20.9196 7.52399 20.6532 7.56354 20.3939C6.6492 19.9836 6.01199 19.0657 6.01199 18C6.01199 16.5528 7.18561 15.3756 8.63635 15.3756C9.34195 15.3756 9.97916 15.6528 10.4507 16.1065C12.2723 14.7925 14.7925 13.9535 17.5968 13.8815C17.5968 13.8455 18.9072 7.60309 18.9072 7.60309C18.9325 7.48087 19.0044 7.37622 19.1088 7.30811C19.2132 7.23972 19.3392 7.21802 19.4617 7.24329L23.825 8.17191C24.1309 7.55283 24.7607 7.12436 25.4987 7.12436C26.5356 7.12436 27.3744 7.96317 27.3744 9C27.3744 10.0368 26.5356 10.8756 25.4987 10.8756C24.4943 10.8756 23.6808 10.0835 23.6341 9.09009L19.7279 8.25842L18.5328 13.8853C21.2868 13.9823 23.7601 14.8175 25.5528 16.1136C26.0244 15.6566 26.6652 15.3756 27.3744 15.3756C28.8254 15.3756 29.9987 16.5493 29.9987 18C29.9987 19.0728 29.3544 19.9907 28.4436 20.4011V20.4011Z" fill="#49D742"/>
<path d="M22.1256 18C21.0924 18 20.25 18.8424 20.25 19.8756C20.25 20.9086 21.0924 21.7513 22.1256 21.7513C23.1586 21.7513 24.0013 20.9086 24.0013 19.8756C24.0013 18.8424 23.1589 18 22.1256 18V18Z" fill="#49D742"/>
</svg>
