<svg width="279" height="176" viewBox="0 0 279 176" fill="none" xmlns="http://www.w3.org/2000/svg">
<g opacity="0.85">
<rect width="279" height="176" fill="white"/>
<path d="M37.1071 81.4224C44.6426 92.1072 51.9212 101.551 65.8666 101.551C80.0522 101.551 88.7223 91.6686 88.7223 76.6914C88.7223 62.8772 83.2123 59.0162 71.9389 52.6924C64.0239 48.2524 52.4543 42.7143 43.1795 42.7143C19.6459 42.7143 15.8537 65.6825 15.8537 86.0674C15.8537 90.8873 15.4897 95.8882 15.9381 100.69C16.4405 106.071 21.5214 110.21 24.1189 114.625C29.9062 124.463 39.6678 130.62 48.5771 137.162C55.3117 142.107 64.0858 148 72.698 148C82.9697 148 85.6134 145.146 93.7826 139.915C106.965 131.472 112.244 119 119.084 104.647C119.909 102.917 128.416 77.4656 127.855 77.4656C122.78 77.4656 129.578 158.554 129.711 165.892C129.911 176.931 121.249 173.172 114.53 167.612C109.609 163.54 102.246 154.336 108.458 148" stroke="#FFD23B" stroke-width="4" stroke-linecap="round" stroke-linejoin="round"/>
<path d="M145.61 81.3929C145.61 98.4811 151.079 114.41 151.326 131.577C151.379 135.275 153.494 150.262 150.532 153.479C143.693 160.906 139.893 131.631 139.893 126.403" stroke="#FFD23B" stroke-width="4" stroke-linecap="round" stroke-linejoin="round"/>
<path d="M158.214 91.5822C160.412 94.6571 166.071 109.214 171.887 103.725C176.051 99.7957 180.86 101.007 185.56 97.4851C191.854 92.7685 192.657 90.0643 200.752 90.0643C210.315 90.0643 215.692 93.9405 222.105 82.8121C231.573 66.3808 234.777 45.4791 235.524 26.8186C235.744 21.3275 238.103 7.63873 233.414 2.95384C232.458 1.99845 229.955 1.29841 229.701 3.20683C228.182 14.5843 229.563 27.1954 229.616 38.6244C229.727 62.4802 230.667 95.4532 248.69 114.182C251.717 117.327 260 124.72 260 115.869" stroke="#FFD23B" stroke-width="4" stroke-linecap="round" stroke-linejoin="round"/>
<path d="M123.607 48.3991C124.673 54.9943 125.179 60.0578 130.207 64.1746C133.622 66.9718 133.692 62.8854 133.748 59.6929C133.842 54.3294 134.208 46.7857 127.953 46.7857" stroke="#FFD23B" stroke-width="4" stroke-linecap="round" stroke-linejoin="round"/>
<path d="M148.036 55.9237C149.84 59.195 158.311 76.0214 155.674 60.9902C154.54 54.5293 152.794 50.8571 148.036 50.8571" stroke="#FFD23B" stroke-width="4" stroke-linecap="round" stroke-linejoin="round"/>
</g>
</svg>
